<svg id="Layer_1" data-name="Layer 1" xmlns="http://www.w3.org/2000/svg" width="133.5" height="42.78" viewBox="0 0 133.5 42.78"><defs><style>.cls-1{fill:#7c878e;}.cls-2{fill:#d50032;}</style></defs><title>FamousFootwear_Stacked_FC_RGB_v2</title><path class="cls-1" d="M70.4,38.14a4.88,4.88,0,0,1,.33-1.8,4.79,4.79,0,0,1,.93-1.46,4.52,4.52,0,0,1,1.4-1,4.58,4.58,0,0,1,3.56,0,4.52,4.52,0,0,1,1.4,1A4.61,4.61,0,0,1,79,36.34a5,5,0,0,1,0,3.59A4.61,4.61,0,0,1,78,41.39a4.41,4.41,0,0,1-6.36,0,4.79,4.79,0,0,1-.93-1.46A4.86,4.86,0,0,1,70.4,38.14Zm1.41,0A3.39,3.39,0,0,0,72,39.37a3.1,3.1,0,0,0,.62,1,2.85,2.85,0,0,0,.95.68,3.07,3.07,0,0,0,1.23.25,3.16,3.16,0,0,0,1.24-.25,2.79,2.79,0,0,0,1-.68,3.1,3.1,0,0,0,.62-1,3.58,3.58,0,0,0,0-2.47,3.1,3.1,0,0,0-.62-1,2.79,2.79,0,0,0-1-.68A3.15,3.15,0,0,0,74.83,35a3.07,3.07,0,0,0-1.23.24,2.85,2.85,0,0,0-.95.68,3.1,3.1,0,0,0-.62,1A3.41,3.41,0,0,0,71.81,38.14Z"/><path class="cls-1" d="M80.14,38.14a4.88,4.88,0,0,1,.33-1.8,4.79,4.79,0,0,1,.93-1.46,4.69,4.69,0,0,1,1.41-1,4.3,4.3,0,0,1,1.76-.36,4.37,4.37,0,0,1,1.79.36,4.52,4.52,0,0,1,1.4,1,4.44,4.44,0,0,1,.93,1.46,4.91,4.91,0,0,1,0,3.59,4.44,4.44,0,0,1-.93,1.46,4.32,4.32,0,0,1-3.19,1.34,4.3,4.3,0,0,1-1.76-.36,4.52,4.52,0,0,1-1.41-1,4.79,4.79,0,0,1-.93-1.46A4.86,4.86,0,0,1,80.14,38.14Zm1.41,0a3.62,3.62,0,0,0,.22,1.23,3.28,3.28,0,0,0,.62,1,3,3,0,0,0,1,.68,3.06,3.06,0,0,0,1.22.25,3.16,3.16,0,0,0,1.24-.25,2.79,2.79,0,0,0,1-.68,2.94,2.94,0,0,0,.62-1,3.58,3.58,0,0,0,0-2.47,2.94,2.94,0,0,0-.62-1,2.79,2.79,0,0,0-1-.68A3.15,3.15,0,0,0,84.57,35a3.05,3.05,0,0,0-1.22.24,3,3,0,0,0-1,.68,3.28,3.28,0,0,0-.62,1A3.63,3.63,0,0,0,81.55,38.14Z"/><path class="cls-1" d="M90.85,35.13H89.26V33.72h1.59V30.31l1.42-.3v3.71H95.6v1.41H92.27v4.24a1.73,1.73,0,0,0,.51,1.26,1.71,1.71,0,0,0,1.25.51v1.41a3.21,3.21,0,0,1-1.23-.24,3.28,3.28,0,0,1-1-.69,3.1,3.1,0,0,1-.68-1,3.23,3.23,0,0,1-.25-1.24Z"/><path class="cls-1" d="M104.42,42.55H103l-1.91-6.38-1.93,6.38H97.66L95,33.72h1.46l1.93,6.39,1.91-6.39h1.46l1.93,6.39,1.91-6.39h1.46Z"/><path class="cls-1" d="M115.05,41a4.39,4.39,0,0,1-1.52,1.29,4.22,4.22,0,0,1-2,.46,3.69,3.69,0,0,1-1.62-.36,4.17,4.17,0,0,1-1.3-1,5,5,0,0,1-1.18-3.25,4.87,4.87,0,0,1,.32-1.8,4.81,4.81,0,0,1,.86-1.46,4.33,4.33,0,0,1,1.3-1,3.8,3.8,0,0,1,3.23,0,4.21,4.21,0,0,1,1.3,1,4.62,4.62,0,0,1,.86,1.46,5.08,5.08,0,0,1,.31,1.8v.6h-6.71a3.28,3.28,0,0,0,.32,1,3.13,3.13,0,0,0,.59.82,2.48,2.48,0,0,0,.78.54,2.33,2.33,0,0,0,.94.2,3.06,3.06,0,0,0,1.27-.28,2.8,2.8,0,0,0,1.06-.87Zm-3.48-6a2.28,2.28,0,0,0-1,.2,2.55,2.55,0,0,0-.79.55,2.86,2.86,0,0,0-.57.82,3,3,0,0,0-.3,1h5.24a3.57,3.57,0,0,0-.32-1,3,3,0,0,0-.56-.82,2.4,2.4,0,0,0-.78-.55A2.16,2.16,0,0,0,111.57,35Z"/><path class="cls-1" d="M117.26,34.3a4,4,0,0,1,.43-.22,6,6,0,0,1,.69-.25c.27-.07.55-.14.86-.2a4.91,4.91,0,0,1,.94-.09,4.27,4.27,0,0,1,1.51.25,3.72,3.72,0,0,1,1.19.67,3.05,3.05,0,0,1,.77,1,3,3,0,0,1,.27,1.27v5.81h-1.41V41.42a3.3,3.3,0,0,1-1.16.95,3.46,3.46,0,0,1-1.58.36,3.74,3.74,0,0,1-1.3-.22,3.53,3.53,0,0,1-1.06-.6,2.88,2.88,0,0,1-.71-.89,2.46,2.46,0,0,1-.25-1.1,2.29,2.29,0,0,1,.27-1.09,3,3,0,0,1,.73-.87,3.46,3.46,0,0,1,1.09-.59,4,4,0,0,1,1.35-.22h2.62v-.41a1.56,1.56,0,0,0-.63-1.28,2.63,2.63,0,0,0-1.7-.5,4.77,4.77,0,0,0-1.52.22,3.77,3.77,0,0,0-.94.41Zm.6,5.53a1,1,0,0,0,.18.58,1.62,1.62,0,0,0,.47.47,2.5,2.5,0,0,0,.7.32,3,3,0,0,0,.86.12,3.61,3.61,0,0,0,.94-.12,2.65,2.65,0,0,0,.78-.32,1.7,1.7,0,0,0,.52-.47,1,1,0,0,0,.2-.58v-1.5h-2.32a3.76,3.76,0,0,0-.9.11,3,3,0,0,0-.74.32,1.77,1.77,0,0,0-.5.48A1,1,0,0,0,117.86,39.83Z"/><path class="cls-1" d="M130.24,35a3.18,3.18,0,0,0-2.41.82,3.24,3.24,0,0,0-.79,2.36v4.41h-1.41V33.72H127v1.46a3.1,3.1,0,0,1,1.35-1.24,4.21,4.21,0,0,1,1.85-.4Z"/><path class="cls-1" d="M68.27,31a1.5,1.5,0,0,1,1.13-.47,1.52,1.52,0,0,1,1.07.41V29.33a2.8,2.8,0,0,0-1.07-.21,2.92,2.92,0,0,0-1.17.24,3.15,3.15,0,0,0-1,.65,3,3,0,0,0-.64.95,2.92,2.92,0,0,0-.24,1.17v1.59H65v1.41H66.4v7.42h1.41V35.13h2.47V33.72H67.81V32.13A1.52,1.52,0,0,1,68.27,31Z"/><path class="cls-2" d="M58.65,1.72l-8.15,15a3.37,3.37,0,0,0-.25,1.1h-.06A3.88,3.88,0,0,0,50,16.67l-8.14-15A2.41,2.41,0,0,0,39.31.24H36.83V25.76h3.53V6.55a3.1,3.1,0,0,0-.18-1h0L48.6,21.41a1.8,1.8,0,0,0,3.24,0L60.23,5.57h0a3.94,3.94,0,0,0-.18,1V25.77h3.54V.25H61.16A2.4,2.4,0,0,0,58.65,1.72Z"/><path class="cls-2" d="M78.61-.06A13,13,0,0,0,65.46,13a13.14,13.14,0,0,0,26.28,0A13,13,0,0,0,78.61-.06Zm0,22.64a9.56,9.56,0,1,1,0-19.11A9.48,9.48,0,0,1,88.21,13,9.47,9.47,0,0,1,78.62,22.58Z"/><path class="cls-2" d="M110.68,2.16v13.7a6.72,6.72,0,1,1-13.43,0V2.17a1.9,1.9,0,0,0-1.9-1.9H93.72V15.85c0,6.09,4.1,10.25,10.23,10.26S114.2,22,114.21,15.86V.27h-1.64A1.89,1.89,0,0,0,110.68,2.16Z"/><path class="cls-2" d="M124.06,10.53C121,9.4,119.6,8.31,119.6,6.74c0-2,1.7-3.27,4.07-3.27a6.77,6.77,0,0,1,3.52,1.13l.2.09a1.55,1.55,0,0,0,1.9-.48,2.59,2.59,0,0,0,.38-.48l.61-1.08A9.5,9.5,0,0,0,123.67,0c-4.48,0-7.61,2.8-7.61,6.8,0,3.1,2.18,5.37,7,7.16,3.42,1.37,5,2.68,5,4.55,0,2.73-2.13,4.18-5.11,4.13a9.27,9.27,0,0,1-4.73-1.9,1.68,1.68,0,0,0-2.45.43l-.85,1.17a11.32,11.32,0,0,0,8,3.81c5.09,0,8.64-3.14,8.64-7.65C131.59,14.83,129.18,12.22,124.06,10.53Z"/><path class="cls-2" d="M12.59,13.26l.85-1.71H3.86V3.77h13L18.48.24H.34V25.74H3.85V15.05H9.72A3.19,3.19,0,0,0,12.59,13.26Z"/><path class="cls-2" d="M24.45.24H21.34L10.19,25.75h2.29a2.31,2.31,0,0,0,2.19-1.39l1.79-4.13H29.35l1.78,4.12a2.33,2.33,0,0,0,2.2,1.4h2.29L24.48.24Zm3.4,16.55H18l.72-1.66L22.91,4.9l4.22,10.23Z"/><path class="cls-1" d="M132.23,33.54a1.11,1.11,0,1,1-1.1,1.1A1.1,1.1,0,0,1,132.23,33.54Zm0,2a.88.88,0,1,0-.88-.88A.88.88,0,0,0,132.23,35.52ZM131.8,34h.58a.39.39,0,0,1,.38.39.4.4,0,0,1-.24.36l.2.47h-.23l-.2-.44H132v.44h-.22Zm.22.55h.36a.16.16,0,1,0,0-.32H132Z"/></svg>