<svg xmlns="http://www.w3.org/2000/svg" id="Layer_2" data-name="Layer 2" viewBox="0 0 174.2 75.1">
  <defs>
    <style>
      .cls-1 {
        fill: #7bc8f6;
      }

      .cls-1, .cls-2, .cls-3, .cls-4 {
        stroke-width: 0px;
      }

      .cls-2 {
        fill: #191615;
      }

      .cls-3 {
        fill: #ddabf9;
      }

      .cls-5 {
        isolation: isolate;
      }

      .cls-4 {
        fill: #e4f964;
      }
    </style>
  </defs>
  <g id="Layer_2-2" data-name="Layer 2">
    <g id="Layer_1-2" data-name="Layer 1-2">
      <g>
        <rect class="cls-2" width="174.2" height="75.1" rx="10.1" ry="10.1"/>
        <g class="cls-5">
          <g class="cls-5">
            <path class="cls-4" d="M30.61,13.11v19.81l16.66-19.81h15.61l-18.27,21.63,18.9,27.16h-15.68l-12.39-18.13-4.83,5.6v12.53h-13.3V13.11h13.3Z"/>
          </g>
          <g class="cls-5">
            <path class="cls-3" d="M65.54,17.94c0-3.92,3.22-7.07,7.14-7.07s7.14,3.15,7.14,7.07-3.22,7.07-7.14,7.07-7.14-3.15-7.14-7.07ZM79.19,26.62v35.28h-12.95V26.62h12.95Z"/>
          </g>
          <g class="cls-5">
            <path class="cls-1" d="M101.52,26.2c4.97,0,8.47,1.61,9.73,4.13V13.11h12.67v48.79h-12.67v-3.71c-1.26,2.52-4.76,4.13-9.73,4.13-10.08,0-17.43-8.12-17.43-18.06s7.35-18.06,17.43-18.06ZM104.25,50.98c3.99,0,7.35-3.01,7.35-6.72s-3.36-6.72-7.35-6.72-7.35,3.08-7.35,6.72,3.29,6.72,7.35,6.72Z"/>
          </g>
          <g class="cls-5">
            <path class="cls-4" d="M145.06,52.1c2.24,0,3.92-.14,3.92-1.68,0-1.68-5.74-1.26-11.2-3.15-4.55-1.61-7.42-4.69-7.42-9.45,0-8.47,7.63-12.25,15.12-12.25,6.93,0,11.13,2.38,13.93,4.13l-5.04,8.68c-1.68-.98-4.69-2.59-9.31-2.59-2.38,0-3.15.84-3.15,1.47,0,2.03,2.94.77,11.2,3.5,6.16,2.03,7.77,5.6,7.77,9.52,0,7.56-4.55,12.67-15.75,12.67-9.17,0-14.14-2.87-17.5-5.32l6.58-8.89c2.59,2.24,7,3.36,10.85,3.36Z"/>
          </g>
        </g>
      </g>
    </g>
  </g>
</svg>