<svg class="tooltip-icon-trigger tooltip-color-change-active" width="32" height="32" fill="none" xmlns="http://www.w3.org/2000/svg" style="top: 5px; left: 5px;">
    <path fill-rule="evenodd" clip-rule="evenodd" d="M7.76168 21.5684C8.20686 21.3736 8.78312 21.2023 9.3818 21.0272L9.56596 20.9721C10.0071 20.8405 10.4066 20.7213 10.6543 20.6087C12.1831 19.9169 13.0286 20.9076 13.7119 21.7104C14.3268 22.4364 14.9075 23.1111 16.0007 23.1111C17.0891 23.1111 17.6695 22.4339 18.2815 21.72L18.2896 21.7104L18.2943 21.7049C18.9767 20.903 19.8219 19.91 21.3471 20.6087C21.6461 20.7454 22.1243 20.8991 22.6368 21.0614C23.3426 21.2865 24.0181 21.503 24.515 21.7571C25.5793 20.1678 26.2 18.2564 26.2 16.2C26.2 10.6772 21.7228 6.2 16.2 6.2C10.6772 6.2 6.2 10.6772 6.2 16.2C6.2 18.1756 6.77292 20.0175 7.76168 21.5684ZM27.4 16.2C27.4 22.3856 22.3856 27.4 16.2 27.4C10.0144 27.4 5 22.3856 5 16.2C5 10.0144 10.0144 5 16.2 5C22.3856 5 27.4 10.0144 27.4 16.2ZM11 14.8012C11 17.8075 13.3145 20.2586 16.1671 20.2586C19.0196 20.2586 21.3341 17.8075 21.3341 14.8012C21.3341 11.7949 19.0111 9.34375 16.1671 9.34375C13.323 9.34375 11 11.7864 11 14.8012Z" fill="currentColor"></path>
</svg>